<svg width="24" height="24" viewBox="0 0 24 24" fill="none"
	xmlns="http://www.w3.org/2000/svg">
	<rect width="24" height="24" rx="4" fill="#F26724"/>
	<path d="M20.2977 7.41375C20.1724 7.21993 18.3369 4.5 15.1512 4.5H8.34128C7.81668 4.49984 7.29719 4.60302 6.81247 4.80364C6.32776 5.00426 5.8873 5.29839 5.51626 5.66924C5.14522 6.04009 4.85087 6.4804 4.65001 6.96501C4.44914 7.44963 4.3457 7.96907 4.3456 8.49366V15.9676C4.3456 16.188 4.00228 16.0655 4.00228 16.0655C3.90708 16.0352 3.80803 16.0185 3.70813 16.016C3.62115 16.0157 3.53498 16.0327 3.45458 16.0659C3.37418 16.099 3.30114 16.1478 3.23968 16.2094C3.17821 16.2709 3.12953 16.344 3.09644 16.4244C3.06335 16.5049 3.04651 16.5911 3.04688 16.678C3.04688 17.4642 4.27186 17.7805 4.76225 17.7805C4.90143 17.7857 5.04078 17.7778 5.1785 17.7571C5.5551 18.236 6.03502 18.6235 6.58241 18.8908C7.1298 19.1581 7.7305 19.2983 8.33966 19.3009H15.1266C16.1858 19.3007 17.2016 18.88 17.9506 18.131C18.6996 17.3821 19.1205 16.3664 19.1207 15.3072V11.214C19.1207 11.214 19.9532 10.1603 20.0515 10.0624C20.0515 10.0624 20.7127 9.15572 20.884 8.81321C21.0552 8.4707 20.9086 8.32281 20.2957 7.41657" fill="white"/>
	<path d="M16.2999 15.0394C16.458 15.0913 16.6239 15.1161 16.7903 15.1127C17.5253 15.1127 17.844 14.8186 17.844 14.476C17.844 14.084 17.3049 14.084 17.2557 13.7165C17.1824 13.2752 17.2311 11.3153 17.9907 10.237L18.5053 10.4574C18.6053 10.5036 18.7138 10.5286 18.824 10.5307C18.8902 10.5284 18.9551 10.5118 19.0143 10.4822C19.0735 10.4526 19.1257 10.4106 19.1673 10.3591C19.6759 9.80675 20.1201 9.19842 20.4914 8.54579C20.5647 8.4249 19.4868 7.07541 18.8985 6.61162C18.4713 6.27861 17.9457 6.09653 17.404 6.09382C16.9088 6.08996 16.4249 6.24161 16.0205 6.52738C15.6161 6.81316 15.3116 7.21865 15.1499 7.68669C14.1194 8.40839 12.977 8.95527 11.7687 9.30536C10.1267 9.74659 8.43627 9.32994 7.30921 9.40327C6.99703 9.40239 6.68788 9.46445 6.40023 9.58574C6.11258 9.70703 5.85233 9.88507 5.63503 10.1092C5.41774 10.3333 5.24786 10.599 5.13555 10.8903C5.02323 11.1815 4.97079 11.4925 4.98135 11.8045C5.00593 13.0786 5.888 14.2302 5.888 15.431C5.89261 15.6051 5.8625 15.7784 5.79943 15.9407C5.73637 16.1031 5.6416 16.2512 5.52067 16.3765C5.39974 16.5018 5.25507 16.6018 5.09509 16.6706C4.9351 16.7394 4.76302 16.7757 4.58888 16.7773C3.95221 16.7773 3.92763 16.5323 3.73139 16.5323C3.70862 16.5264 3.68481 16.5256 3.66171 16.5302C3.63861 16.5347 3.61683 16.5443 3.59798 16.5584C3.57913 16.5725 3.5637 16.5907 3.55282 16.6115C3.54194 16.6324 3.53591 16.6555 3.53516 16.679C3.53516 16.9977 4.32132 17.2919 4.76013 17.2919C5.08517 17.3036 5.40794 17.2335 5.69884 17.088C5.98975 16.9426 6.23948 16.7264 6.42513 16.4594C6.55031 16.7377 6.75931 16.97 7.02293 17.1237C7.28656 17.2774 7.59163 17.345 7.89551 17.3169C8.82633 17.3169 9.2188 16.8756 9.2188 16.5085C9.2188 16.2144 9.04715 16.0923 8.90007 15.8956C8.78015 15.7327 8.71958 15.5336 8.72841 15.3315C8.89129 15.3489 9.05501 15.3571 9.2188 15.3561C9.88005 15.3561 10.1009 15.0865 10.1009 14.8169C10.1009 14.4736 9.70879 14.4982 9.70879 13.9349C9.70879 13.4936 9.95379 13.3707 10.15 13.3707C10.3704 13.3707 11.2279 13.4441 12.2816 13.567C12.625 13.5916 13.4841 13.9345 13.4841 15.2824V15.7727C13.4841 16.5811 13.8028 17.6106 15.2732 17.6106C16.2531 17.6106 16.8169 17.0715 16.8169 16.6552C16.8169 16.3856 16.5965 16.2877 16.4736 16.1161C16.3663 15.9606 16.2953 15.7831 16.2656 15.5966C16.2359 15.4101 16.2483 15.2193 16.3019 15.0382" fill="#F26724"/>
	<path d="M18.6795 9.17975C18.6455 9.17975 18.6123 9.18982 18.5841 9.20868C18.5559 9.22754 18.5339 9.25435 18.5209 9.28571C18.5079 9.31708 18.5045 9.3516 18.5111 9.38489C18.5177 9.41819 18.5341 9.44878 18.5581 9.47279C18.5821 9.49679 18.6127 9.51314 18.646 9.51977C18.6793 9.52639 18.7138 9.52299 18.7452 9.51C18.7765 9.497 18.8033 9.475 18.8222 9.44677C18.8411 9.41854 18.8511 9.38536 18.8511 9.35141C18.8517 9.3287 18.8477 9.3061 18.8393 9.285C18.8309 9.2639 18.8183 9.24473 18.8022 9.22867C18.7861 9.2126 18.767 9.19998 18.7459 9.19157C18.7248 9.18316 18.7022 9.17914 18.6795 9.17975Z" fill="white"/>
	<path d="M19.2682 8.66615C19.2391 8.66615 19.2106 8.67478 19.1865 8.69094C19.1623 8.7071 19.1434 8.73007 19.1323 8.75694C19.1212 8.78382 19.1182 8.81339 19.1239 8.84192C19.1296 8.87045 19.1436 8.89666 19.1642 8.91723C19.1847 8.9378 19.2109 8.95181 19.2395 8.95748C19.268 8.96316 19.2976 8.96024 19.3245 8.94911C19.3513 8.93798 19.3743 8.91913 19.3905 8.89494C19.4066 8.87075 19.4153 8.84232 19.4153 8.81323C19.4161 8.79369 19.4129 8.77418 19.4058 8.75595C19.3987 8.73771 19.3879 8.72116 19.3741 8.70732C19.3602 8.69349 19.3437 8.68269 19.3255 8.6756C19.3072 8.66851 19.2877 8.66529 19.2682 8.66615Z" fill="white"/>
	<path d="M19.5584 8.10156C19.5345 8.10156 19.5111 8.10865 19.4912 8.12194C19.4713 8.13522 19.4559 8.1541 19.4467 8.17619C19.4376 8.19828 19.4352 8.22258 19.4398 8.24603C19.4445 8.26948 19.456 8.29102 19.4729 8.30793C19.4898 8.32483 19.5114 8.33635 19.5348 8.34101C19.5583 8.34568 19.5826 8.34328 19.6046 8.33413C19.6267 8.32498 19.6456 8.30949 19.6589 8.28961C19.6722 8.26973 19.6793 8.24636 19.6793 8.22245C19.6769 8.19119 19.6634 8.16182 19.6412 8.13965C19.619 8.11748 19.5896 8.10397 19.5584 8.10156Z" fill="white"/>
	<path d="M14.6611 8.91201C14.6999 8.91201 14.7378 8.9005 14.7701 8.87894C14.8024 8.85737 14.8275 8.82672 14.8424 8.79087C14.8572 8.75501 14.8611 8.71555 14.8536 8.67749C14.846 8.63942 14.8273 8.60445 14.7998 8.57701C14.7724 8.54956 14.7374 8.53087 14.6994 8.5233C14.6613 8.51573 14.6218 8.51962 14.586 8.53447C14.5501 8.54932 14.5195 8.57447 14.4979 8.60674C14.4764 8.63902 14.4648 8.67696 14.4648 8.71577C14.4894 8.83665 14.5628 8.91201 14.6611 8.91201Z" fill="white"/>
	<path d="M15.3722 13.3711C15.3476 13.3714 15.3233 13.3768 15.301 13.3871C15.2786 13.3974 15.2587 13.4123 15.2425 13.4308C15.2263 13.4493 15.2142 13.4711 15.2069 13.4946C15.1997 13.5181 15.1975 13.5429 15.2005 13.5673C15.1985 13.6158 15.2151 13.6633 15.2471 13.6998C15.2791 13.7363 15.3238 13.7592 15.3722 13.7636C15.3981 13.7639 15.4238 13.7591 15.4477 13.7494C15.4717 13.7397 15.4935 13.7252 15.5118 13.7069C15.5301 13.6886 15.5445 13.6669 15.5543 13.6429C15.564 13.6189 15.5688 13.5932 15.5684 13.5673C15.5438 13.4694 15.4705 13.3711 15.3722 13.3711Z" fill="white"/>
	<path d="M16.4736 13.5664C16.4348 13.5664 16.3968 13.5779 16.3646 13.5995C16.3323 13.621 16.3071 13.6517 16.2923 13.6875C16.2774 13.7234 16.2735 13.7629 16.2811 13.8009C16.2887 13.839 16.3074 13.874 16.3348 13.9014C16.3623 13.9288 16.3972 13.9475 16.4353 13.9551C16.4734 13.9627 16.5128 13.9588 16.5487 13.9439C16.5845 13.9291 16.6152 13.9039 16.6367 13.8717C16.6583 13.8394 16.6698 13.8015 16.6698 13.7626C16.6452 13.6418 16.5719 13.5664 16.4736 13.5664Z" fill="white"/>
	<path d="M15.5194 11.7035C15.4689 11.7058 15.4213 11.7275 15.3864 11.764C15.3515 11.8005 15.332 11.8491 15.332 11.8996C15.332 11.9501 15.3515 11.9987 15.3864 12.0352C15.4213 12.0717 15.4689 12.0933 15.5194 12.0956C15.5458 12.098 15.5723 12.0946 15.5972 12.0856C15.6221 12.0766 15.6448 12.0622 15.6635 12.0435C15.6822 12.0248 15.6966 12.0022 15.7056 11.9772C15.7146 11.9523 15.718 11.9258 15.7156 11.8994C15.716 11.8735 15.7112 11.8478 15.7015 11.8238C15.6917 11.7999 15.6773 11.7781 15.659 11.7598C15.6407 11.7415 15.6189 11.727 15.5949 11.7173C15.5709 11.7076 15.5453 11.7032 15.5194 11.7035Z" fill="white"/>
	<path d="M16.1552 10.4544C16.1951 10.4599 16.2358 10.4531 16.2717 10.4349C16.3076 10.4167 16.3371 10.3879 16.3563 10.3525C16.3754 10.3171 16.3833 10.2766 16.3789 10.2366C16.3744 10.1966 16.3579 10.1589 16.3315 10.1285C16.305 10.0981 16.2699 10.0765 16.2309 10.0666C16.1918 10.0567 16.1507 10.059 16.113 10.0731C16.0753 10.0872 16.0427 10.1124 16.0198 10.1455C15.9968 10.1786 15.9844 10.2179 15.9844 10.2582C15.984 10.3061 16.0011 10.3525 16.0326 10.3887C16.0641 10.4248 16.1077 10.4482 16.1552 10.4544Z" fill="white"/>
	<path d="M13.2666 9.69326C13.3054 9.69326 13.3433 9.68175 13.3756 9.66018C13.4078 9.63862 13.433 9.60797 13.4479 9.57212C13.4627 9.53626 13.4666 9.4968 13.459 9.45874C13.4514 9.42067 13.4328 9.3857 13.4053 9.35826C13.3779 9.33081 13.3429 9.31212 13.3048 9.30455C13.2668 9.29698 13.2273 9.30087 13.1915 9.31572C13.1556 9.33057 13.1249 9.35572 13.1034 9.388C13.0818 9.42027 13.0703 9.45821 13.0703 9.49702C13.0949 9.61791 13.1682 9.69326 13.2666 9.69326Z" fill="white"/>
	<path d="M14.3173 13.002C14.2785 13.002 14.2406 13.0135 14.2083 13.035C14.176 13.0566 14.1509 13.0872 14.136 13.1231C14.1212 13.159 14.1173 13.1984 14.1249 13.2365C14.1324 13.2745 14.1511 13.3095 14.1786 13.337C14.206 13.3644 14.241 13.3831 14.279 13.3907C14.3171 13.3982 14.3566 13.3943 14.3924 13.3795C14.4283 13.3646 14.4589 13.3395 14.4805 13.3072C14.5021 13.2749 14.5136 13.237 14.5136 13.1982C14.489 13.0773 14.4157 13.002 14.3173 13.002Z" fill="white"/>
	<path d="M13.8045 10.6015C13.8291 10.6012 13.8534 10.5957 13.8758 10.5854C13.8981 10.5751 13.918 10.5603 13.9343 10.5417C13.9505 10.5232 13.9626 10.5015 13.9698 10.478C13.977 10.4544 13.9792 10.4296 13.9762 10.4052C13.9783 10.3567 13.9616 10.3093 13.9296 10.2728C13.8977 10.2362 13.8529 10.2134 13.8045 10.209C13.7541 10.2113 13.7065 10.2329 13.6716 10.2694C13.6367 10.306 13.6172 10.3545 13.6172 10.405C13.6172 10.4555 13.6367 10.5041 13.6716 10.5406C13.7065 10.5771 13.7541 10.5988 13.8045 10.6011" fill="white"/>
	<path d="M12.6259 11.6543C12.5871 11.6543 12.5492 11.6658 12.5169 11.6874C12.4846 11.7089 12.4595 11.7396 12.4446 11.7754C12.4298 11.8113 12.4259 11.8508 12.4335 11.8888C12.441 11.9269 12.4597 11.9619 12.4872 11.9893C12.5146 12.0167 12.5496 12.0354 12.5876 12.043C12.6257 12.0506 12.6652 12.0467 12.701 12.0318C12.7369 12.017 12.7675 11.9918 12.7891 11.9596C12.8107 11.9273 12.8222 11.8893 12.8222 11.8505C12.8188 11.7996 12.797 11.7516 12.7609 11.7156C12.7248 11.6795 12.6769 11.6577 12.6259 11.6543Z" fill="white"/>
	<path d="M14.54 11.4589C14.5788 11.4589 14.6167 11.4474 14.649 11.4258C14.6813 11.4042 14.7064 11.3736 14.7213 11.3377C14.7361 11.3019 14.74 11.2624 14.7325 11.2244C14.7249 11.1863 14.7062 11.1513 14.6788 11.1239C14.6513 11.0964 14.6163 11.0777 14.5783 11.0702C14.5402 11.0626 14.5008 11.0665 14.4649 11.0813C14.429 11.0962 14.3984 11.1213 14.3768 11.1536C14.3553 11.1859 14.3438 11.2238 14.3438 11.2626C14.3683 11.3835 14.4417 11.4589 14.54 11.4589Z" fill="white"/>
	<path d="M11.622 9.81643C11.5832 9.81643 11.5453 9.82794 11.513 9.8495C11.4807 9.87106 11.4556 9.90171 11.4407 9.93757C11.4259 9.97343 11.422 10.0129 11.4296 10.0509C11.4371 10.089 11.4558 10.124 11.4833 10.1514C11.5107 10.1789 11.5457 10.1976 11.5837 10.2051C11.6218 10.2127 11.6613 10.2088 11.6971 10.194C11.733 10.1791 11.7636 10.154 11.7852 10.1217C11.8067 10.0894 11.8183 10.0515 11.8183 10.0127C11.8186 9.98679 11.8138 9.9611 11.8041 9.93712C11.7944 9.91314 11.7799 9.89135 11.7616 9.87306C11.7433 9.85476 11.7215 9.84032 11.6976 9.83059C11.6736 9.82086 11.6479 9.81605 11.622 9.81643Z" fill="white"/>
	<path d="M12.04 10.7734C12.0012 10.7734 11.9632 10.7849 11.931 10.8065C11.8987 10.8281 11.8735 10.8587 11.8587 10.8946C11.8438 10.9304 11.8399 10.9699 11.8475 11.008C11.8551 11.046 11.8738 11.081 11.9012 11.1084C11.9287 11.1359 11.9636 11.1546 12.0017 11.1621C12.0398 11.1697 12.0792 11.1658 12.1151 11.151C12.1509 11.1361 12.1816 11.111 12.2032 11.0787C12.2247 11.0464 12.2362 11.0085 12.2362 10.9697C12.2116 10.8488 12.1383 10.7734 12.04 10.7734Z" fill="white"/>
	<path d="M13.3876 12.3652C13.3488 12.3652 13.3109 12.3767 13.2786 12.3983C13.2463 12.4199 13.2212 12.4505 13.2063 12.4864C13.1915 12.5222 13.1876 12.5617 13.1952 12.5998C13.2027 12.6378 13.2214 12.6728 13.2489 12.7002C13.2763 12.7277 13.3113 12.7464 13.3494 12.7539C13.3874 12.7615 13.4269 12.7576 13.4627 12.7428C13.4986 12.7279 13.5292 12.7028 13.5508 12.6705C13.5724 12.6382 13.5839 12.6003 13.5839 12.5615C13.5593 12.4636 13.486 12.3652 13.3876 12.3652Z" fill="white"/>
	<path d="M15.2744 9.76748C15.3132 9.76748 15.3511 9.75597 15.3834 9.7344C15.4157 9.71284 15.4408 9.68219 15.4557 9.64633C15.4705 9.61048 15.4744 9.57102 15.4668 9.53295C15.4593 9.49489 15.4406 9.45992 15.4131 9.43248C15.3857 9.40503 15.3507 9.38634 15.3126 9.37877C15.2746 9.3712 15.2351 9.37509 15.1993 9.38994C15.1634 9.40479 15.1328 9.42994 15.1112 9.46221C15.0896 9.49448 15.0781 9.53243 15.0781 9.57124C15.1027 9.69212 15.176 9.76748 15.2744 9.76748Z" fill="white"/>
	<path d="M16.622 12.0469C16.5832 12.0469 16.5453 12.0584 16.513 12.08C16.4807 12.1015 16.4556 12.1322 16.4407 12.168C16.4259 12.2039 16.422 12.2434 16.4296 12.2814C16.4371 12.3195 16.4558 12.3545 16.4833 12.3819C16.5107 12.4093 16.5457 12.428 16.5837 12.4356C16.6218 12.4432 16.6613 12.4393 16.6971 12.4244C16.733 12.4096 16.7636 12.3844 16.7852 12.3522C16.8067 12.3199 16.8183 12.2819 16.8183 12.2431C16.8186 12.2173 16.8138 12.1916 16.8041 12.1676C16.7944 12.1436 16.7799 12.1218 16.7616 12.1035C16.7433 12.0852 16.7215 12.0708 16.6976 12.0611C16.6736 12.0513 16.6479 12.0465 16.622 12.0469Z" fill="white"/>
	<path d="M17.0858 10.5532C17.0353 10.5554 16.9877 10.5771 16.9528 10.6136C16.9179 10.6501 16.8984 10.6987 16.8984 10.7492C16.8984 10.7997 16.9179 10.8483 16.9528 10.8848C16.9877 10.9213 17.0353 10.9429 17.0858 10.9452C17.1122 10.9476 17.1387 10.9442 17.1636 10.9352C17.1886 10.9262 17.2112 10.9118 17.2299 10.8931C17.2486 10.8744 17.263 10.8518 17.272 10.8269C17.281 10.802 17.2844 10.7754 17.282 10.749C17.2824 10.7231 17.2776 10.6974 17.2679 10.6734C17.2581 10.6495 17.2437 10.6277 17.2254 10.6094C17.2071 10.5911 17.1853 10.5766 17.1613 10.5669C17.1373 10.5572 17.1117 10.5524 17.0858 10.5528" fill="white"/>
	<path d="M16.9658 9.032C16.927 9.032 16.889 9.04351 16.8567 9.06508C16.8245 9.08664 16.7993 9.11729 16.7845 9.15314C16.7696 9.189 16.7657 9.22846 16.7733 9.26652C16.7809 9.30459 16.7996 9.33956 16.827 9.367C16.8545 9.39445 16.8894 9.41314 16.9275 9.42071C16.9656 9.42828 17.005 9.42439 17.0409 9.40954C17.0767 9.39469 17.1074 9.36954 17.1289 9.33726C17.1505 9.30499 17.162 9.26705 17.162 9.22824C17.1644 9.20187 17.161 9.17528 17.152 9.15038C17.143 9.12547 17.1286 9.10285 17.1099 9.08412C17.0912 9.0654 17.0685 9.05102 17.0436 9.04201C17.0187 9.033 16.9921 9.02959 16.9658 9.032Z" fill="white"/>
	<path d="M17.8447 9.30273C17.8059 9.30273 17.7679 9.31424 17.7357 9.33581C17.7034 9.35737 17.6782 9.38802 17.6634 9.42388C17.6485 9.45973 17.6446 9.49919 17.6522 9.53726C17.6598 9.57532 17.6785 9.61029 17.7059 9.63773C17.7334 9.66518 17.7683 9.68387 17.8064 9.69144C17.8445 9.69901 17.8839 9.69513 17.9198 9.68027C17.9556 9.66542 17.9863 9.64027 18.0078 9.608C18.0294 9.57573 18.0409 9.53778 18.0409 9.49897C18.0375 9.44805 18.0157 9.40008 17.9797 9.36399C17.9436 9.3279 17.8956 9.30613 17.8447 9.30273Z" fill="white"/>
	<path d="M16.3251 8.46875C16.2863 8.46875 16.2484 8.48026 16.2161 8.50182C16.1838 8.52338 16.1587 8.55403 16.1438 8.58989C16.129 8.62575 16.1251 8.66521 16.1327 8.70327C16.1402 8.74134 16.1589 8.7763 16.1864 8.80375C16.2138 8.83119 16.2488 8.84988 16.2869 8.85745C16.3249 8.86503 16.3644 8.86114 16.4002 8.84629C16.4361 8.83143 16.4667 8.80628 16.4883 8.77401C16.5099 8.74174 16.5214 8.7038 16.5214 8.66499C16.4968 8.5441 16.4235 8.46875 16.3251 8.46875Z" fill="white"/>
	<path d="M15.9619 7.75781C15.9231 7.75781 15.8851 7.76932 15.8528 7.79088C15.8206 7.81245 15.7954 7.8431 15.7806 7.87895C15.7657 7.91481 15.7618 7.95427 15.7694 7.99233C15.777 8.0304 15.7957 8.06537 15.8231 8.09281C15.8505 8.12026 15.8855 8.13895 15.9236 8.14652C15.9616 8.15409 16.0011 8.1502 16.037 8.13535C16.0728 8.1205 16.1035 8.09535 16.125 8.06307C16.1466 8.0308 16.1581 7.99286 16.1581 7.95405C16.1335 7.85613 16.0602 7.75781 15.9619 7.75781Z" fill="white"/>
	<path d="M16.7197 7.75781C16.6809 7.75781 16.6429 7.76932 16.6107 7.79088C16.5784 7.81245 16.5532 7.8431 16.5384 7.87895C16.5235 7.91481 16.5196 7.95427 16.5272 7.99233C16.5348 8.0304 16.5535 8.06537 16.5809 8.09281C16.6084 8.12026 16.6433 8.13895 16.6814 8.14652C16.7195 8.15409 16.7589 8.1502 16.7948 8.13535C16.8306 8.1205 16.8613 8.09535 16.8828 8.06307C16.9044 8.0308 16.9159 7.99286 16.9159 7.95405C16.9125 7.90312 16.8907 7.85516 16.8547 7.81907C16.8186 7.78298 16.7706 7.76121 16.7197 7.75781Z" fill="white"/>
	<path d="M15.8359 7.26831C15.8386 7.23017 15.8549 7.19427 15.8819 7.16724C15.909 7.1402 15.9449 7.12386 15.983 7.12123C16.0026 7.12037 16.0221 7.12359 16.0403 7.13068C16.0585 7.13777 16.0751 7.14857 16.0889 7.1624C16.1028 7.17623 16.1136 7.19279 16.1206 7.21102C16.1277 7.22926 16.1309 7.24876 16.1301 7.26831C16.1301 7.30731 16.1146 7.34472 16.087 7.37231C16.0594 7.39989 16.022 7.41538 15.983 7.41538C15.944 7.41538 15.9066 7.39989 15.879 7.37231C15.8514 7.34472 15.8359 7.30731 15.8359 7.26831Z" fill="white"/>
	<path d="M16.3047 6.70292C16.3047 6.67901 16.3118 6.65564 16.3251 6.63576C16.3383 6.61588 16.3572 6.60038 16.3793 6.59123C16.4014 6.58208 16.4257 6.57969 16.4492 6.58435C16.4726 6.58902 16.4941 6.60053 16.5111 6.61744C16.528 6.63434 16.5395 6.65588 16.5441 6.67933C16.5488 6.70278 16.5464 6.72709 16.5373 6.74918C16.5281 6.77127 16.5126 6.79015 16.4927 6.80343C16.4729 6.81671 16.4495 6.8238 16.4256 6.8238C16.3943 6.8214 16.3649 6.80789 16.3428 6.78572C16.3206 6.76355 16.3071 6.73418 16.3047 6.70292Z" fill="white"/>
	<path d="M16.8906 6.43581C16.8906 6.41644 16.8964 6.39751 16.9071 6.38141C16.9179 6.36531 16.9332 6.35276 16.9511 6.34534C16.969 6.33793 16.9887 6.33599 17.0076 6.33977C17.0266 6.34355 17.0441 6.35288 17.0578 6.36657C17.0715 6.38026 17.0808 6.39771 17.0846 6.41671C17.0884 6.4357 17.0864 6.45539 17.079 6.47328C17.0716 6.49117 17.059 6.50646 17.0429 6.51722C17.0268 6.52798 17.0079 6.53373 16.9885 6.53373C16.9632 6.53194 16.9393 6.52105 16.9213 6.50306C16.9033 6.48507 16.8924 6.46119 16.8906 6.43581Z" fill="white"/>
	<path d="M19.4375 7.70925C19.4375 7.68988 19.4432 7.67095 19.454 7.65485C19.4648 7.63874 19.4801 7.62619 19.4979 7.61878C19.5158 7.61137 19.5355 7.60943 19.5545 7.61321C19.5735 7.61699 19.591 7.62631 19.6047 7.64001C19.6183 7.6537 19.6277 7.67115 19.6315 7.69014C19.6352 7.70914 19.6333 7.72882 19.6259 7.74672C19.6185 7.76461 19.6059 7.7799 19.5898 7.79066C19.5737 7.80142 19.5548 7.80716 19.5354 7.80716C19.51 7.80538 19.4862 7.79449 19.4682 7.7765C19.4502 7.75851 19.4393 7.73463 19.4375 7.70925Z" fill="white"/>
	<path d="M19.293 9.54714C19.293 9.52777 19.2987 9.50884 19.3095 9.49274C19.3202 9.47663 19.3355 9.46408 19.3534 9.45667C19.3713 9.44926 19.391 9.44732 19.41 9.4511C19.429 9.45488 19.4464 9.4642 19.4601 9.4779C19.4738 9.49159 19.4831 9.50904 19.4869 9.52803C19.4907 9.54703 19.4888 9.56672 19.4813 9.58461C19.4739 9.6025 19.4614 9.61779 19.4453 9.62855C19.4292 9.63931 19.4103 9.64505 19.3909 9.64505C19.3663 9.64505 19.3175 9.59589 19.293 9.54714Z" fill="white"/>
	<path d="M19.5625 9.20534C19.5625 9.18597 19.5682 9.16704 19.579 9.15094C19.5898 9.13484 19.6051 9.12229 19.6229 9.11488C19.6408 9.10746 19.6605 9.10553 19.6795 9.1093C19.6985 9.11308 19.716 9.12241 19.7297 9.1361C19.7433 9.1498 19.7527 9.16724 19.7565 9.18624C19.7602 9.20523 19.7583 9.22492 19.7509 9.24281C19.7435 9.2607 19.7309 9.276 19.7148 9.28675C19.6987 9.29751 19.6798 9.30326 19.6604 9.30326C19.635 9.30147 19.6112 9.29059 19.5932 9.27259C19.5752 9.2546 19.5643 9.23072 19.5625 9.20534Z" fill="white"/>
	<path d="M19.0234 9.91432C19.0234 9.89496 19.0292 9.87603 19.0399 9.85992C19.0507 9.84382 19.066 9.83127 19.0839 9.82386C19.1018 9.81645 19.1215 9.81451 19.1405 9.81829C19.1595 9.82207 19.1769 9.83139 19.1906 9.84509C19.2043 9.85878 19.2136 9.87623 19.2174 9.89522C19.2212 9.91422 19.2192 9.9339 19.2118 9.95179C19.2044 9.96969 19.1919 9.98498 19.1758 9.99574C19.1597 10.0065 19.1407 10.0122 19.1214 10.0122C19.096 10.0105 19.0721 9.99957 19.0541 9.98158C19.0361 9.96359 19.0252 9.9397 19.0234 9.91432Z" fill="white"/>
	<path d="M18.7031 10.2327C18.7031 10.2133 18.7089 10.1944 18.7196 10.1783C18.7304 10.1622 18.7457 10.1496 18.7636 10.1422C18.7815 10.1348 18.8012 10.1329 18.8201 10.1366C18.8391 10.1404 18.8566 10.1498 18.8703 10.1634C18.884 10.1771 18.8933 10.1946 18.8971 10.2136C18.9009 10.2326 18.8989 10.2523 18.8915 10.2702C18.8841 10.288 18.8715 10.3033 18.8554 10.3141C18.8393 10.3249 18.8204 10.3306 18.801 10.3306C18.7519 10.3306 18.7277 10.2814 18.7031 10.2327Z" fill="white"/>
	<path d="M19.8047 8.8362C19.8047 8.81683 19.8104 8.7979 19.8212 8.7818C19.8319 8.7657 19.8472 8.75315 19.8651 8.74573C19.883 8.73832 19.9027 8.73638 19.9217 8.74016C19.9407 8.74394 19.9581 8.75327 19.9718 8.76696C19.9855 8.78066 19.9949 8.7981 19.9986 8.8171C20.0024 8.83609 20.0005 8.85578 19.9931 8.87367C19.9857 8.89156 19.9731 8.90686 19.957 8.91761C19.9409 8.92837 19.922 8.93412 19.9026 8.93412C19.8772 8.93233 19.8533 8.92145 19.8354 8.90345C19.8174 8.88546 19.8065 8.86158 19.8047 8.8362Z" fill="white"/>
	<path d="M19.9766 8.51979C19.9766 8.50043 19.9823 8.48149 19.9931 8.46539C20.0038 8.44929 20.0191 8.43674 20.037 8.42933C20.0549 8.42192 20.0746 8.41998 20.0936 8.42376C20.1126 8.42753 20.13 8.43686 20.1437 8.45055C20.1574 8.46425 20.1667 8.4817 20.1705 8.50069C20.1743 8.51968 20.1724 8.53937 20.1649 8.55726C20.1575 8.57516 20.145 8.59045 20.1289 8.60121C20.1128 8.61197 20.0938 8.61771 20.0745 8.61771C20.0253 8.61771 20.0011 8.59313 19.9766 8.51979Z" fill="white"/>
	<path d="M8.46096 16.3349C8.26508 15.9788 8.14444 15.5862 8.10652 15.1816C8.06861 14.7769 8.11422 14.3688 8.24055 13.9825C8.75512 12.6592 10.2497 12.8308 10.2497 12.8308C10.0028 12.7208 9.73348 12.6704 9.46351 12.6837C8.94794 12.7281 8.47084 12.9746 8.13633 13.3694C7.80182 13.7642 7.63707 14.2753 7.67803 14.7912C7.70092 15.0876 7.78215 15.3766 7.91707 15.6415C8.05198 15.9064 8.23792 16.1421 8.46419 16.3349" fill="white"/>
	<path d="M5.98539 12.61C5.83642 12.4625 5.71846 12.2867 5.63846 12.093C5.55846 11.8992 5.51804 11.6914 5.51957 11.4818C5.52692 11.0616 5.6971 10.6607 5.99425 10.3636C6.29139 10.0664 6.69229 9.89624 7.11245 9.88889C8.01909 9.83973 9.6853 10.1093 10.7632 9.96223C11.1307 11.6043 12.3561 12.7555 13.2615 13.4905C12.159 13.0001 11.0561 11.7014 9.78201 10.9922C8.45871 10.2572 7.11124 10.1347 6.40083 10.7959C6.17573 11.0334 6.01839 11.3269 5.94518 11.6458C5.87197 11.9647 5.88558 12.2974 5.98458 12.6092" fill="white"/>
	<path d="M9.76272 14.2777C9.83606 14.7436 8.97656 14.9144 8.97656 14.9144C9.76272 15.0615 10.0057 14.6448 10.0057 14.6448C9.93883 14.5131 9.8566 14.3897 9.76071 14.2773" fill="white"/>
	<path d="M15.96 14.5219C15.96 14.5219 15.4454 15.2324 15.8129 16.5569C15.5435 16.7686 15.2356 16.9259 14.9062 17.0203C14.9062 17.0203 16.0825 17.1673 16.45 16.5544C15.715 15.9903 15.9354 14.6203 15.9596 14.5195" fill="white"/>
	<path d="M18.287 7.02353C18.0889 6.96954 17.8774 6.99587 17.6985 7.09681C17.5197 7.19775 17.3878 7.36515 17.3316 7.56268C17.3218 7.66433 17.3326 7.7669 17.3633 7.86429C17.394 7.96168 17.444 8.0519 17.5103 8.12957C17.5766 8.20725 17.6578 8.27079 17.7492 8.31643C17.8405 8.36206 17.9401 8.38884 18.042 8.39518C18.2402 8.44917 18.4516 8.42284 18.6305 8.32191C18.8094 8.22097 18.9412 8.05357 18.9974 7.85603C19.0072 7.75439 18.9964 7.65182 18.9657 7.55443C18.935 7.45704 18.885 7.36682 18.8187 7.28914C18.7525 7.21147 18.6712 7.14792 18.5799 7.10229C18.4885 7.05666 18.3889 7.02988 18.287 7.02353ZM18.8753 7.83186C18.834 7.97312 18.7396 8.09288 18.6119 8.16599C18.4841 8.23909 18.333 8.25986 18.1903 8.22393C18.1194 8.21781 18.0503 8.1977 17.9872 8.16475C17.9241 8.13181 17.8681 8.08668 17.8225 8.03198C17.7769 7.97729 17.7426 7.9141 17.7215 7.84606C17.7005 7.77803 17.6932 7.70651 17.6999 7.63562C17.7412 7.49436 17.8357 7.3746 17.9634 7.30149C18.0911 7.22838 18.2422 7.20761 18.3849 7.24355C18.4559 7.24966 18.5249 7.26978 18.588 7.30272C18.6512 7.33567 18.7072 7.38079 18.7527 7.43549C18.7983 7.49019 18.8327 7.55338 18.8537 7.62141C18.8747 7.68944 18.8821 7.76097 18.8753 7.83186Z" fill="white"/>
	<path d="M18.2627 7.71141C18.285 7.63521 18.3352 7.57022 18.4033 7.52937C18.4714 7.48852 18.5524 7.47482 18.6302 7.491C18.7081 7.49777 18.7801 7.53508 18.8306 7.5948C18.8812 7.65451 18.906 7.73178 18.8997 7.80973C18.8774 7.88594 18.8272 7.95093 18.7591 7.99177C18.691 8.03262 18.61 8.04632 18.5322 8.03015C18.4543 8.02338 18.3823 7.98606 18.3318 7.92635C18.2812 7.86663 18.2564 7.78937 18.2627 7.71141Z" fill="white"/>
	<path d="M17.3082 13.8832C17.5778 14.3978 16.6953 14.5936 16.6953 14.5936C17.332 14.6915 17.6753 14.324 17.6753 14.1524C17.5405 14.0807 17.4167 13.9899 17.3078 13.8828" fill="white"/>
	<path d="M11.7951 12.1933C11.7951 12.1933 11.9159 12.3404 12.1138 12.5366C12.3612 12.7739 12.6238 12.9948 12.9 13.1978C13.1701 13.4014 13.4569 13.5818 13.7574 13.737C13.8502 13.7959 13.9488 13.8452 14.0516 13.8841C13.9405 13.8463 13.8337 13.797 13.7329 13.737C13.4189 13.5871 13.1159 13.4152 12.8262 13.2224C12.5396 13.0329 12.2693 12.82 12.0179 12.5858C11.8959 12.4792 11.7811 12.3645 11.6746 12.2424C11.6628 12.2289 11.6562 12.2115 11.6562 12.1935C11.6562 12.1755 11.6628 12.1581 11.6746 12.1445C11.7195 12.1457 11.7625 12.1632 11.7955 12.1937" fill="white"/>
	<path d="M19.1925 7.44046C19.0812 7.24792 18.9232 7.08652 18.7331 6.97117C18.5429 6.85582 18.3268 6.79024 18.1046 6.78048C17.8824 6.77073 17.6614 6.81711 17.4618 6.91534C17.2623 7.01358 17.0908 7.1605 16.963 7.34254C16.9457 7.36468 16.9241 7.38309 16.8995 7.39668C16.8749 7.41026 16.8478 7.41874 16.8199 7.42161C16.7919 7.42448 16.7637 7.42168 16.7369 7.41337C16.71 7.40506 16.6851 7.39142 16.6637 7.37326C16.6422 7.3551 16.6247 7.33281 16.6121 7.3077C16.5995 7.2826 16.592 7.2552 16.5903 7.22716C16.5885 7.19912 16.5924 7.17101 16.6017 7.14452C16.6111 7.11802 16.6257 7.09369 16.6447 7.07297C16.7878 6.90882 16.965 6.77782 17.1638 6.68909C17.3627 6.60037 17.5786 6.55604 17.7963 6.5592C18.0904 6.55076 18.3804 6.63016 18.6291 6.78727C18.8779 6.94438 19.0742 7.17207 19.1929 7.44127" fill="white"/>
	<path d="M17.7484 10.1631C17.1501 10.1002 16.5813 9.87117 16.1063 9.50185C15.6802 9.20117 15.3283 8.80731 15.0772 8.35021C15.0526 8.27687 15.0526 8.17855 15.1264 8.15397C15.142 8.14268 15.1599 8.13494 15.1788 8.13129C15.1977 8.12765 15.2172 8.12818 15.2359 8.13287C15.2546 8.13755 15.2721 8.14627 15.287 8.15841C15.302 8.17054 15.3141 8.18581 15.3226 8.20313C15.5557 8.6851 15.89 9.11116 16.3026 9.45229C16.7248 9.79509 17.2191 10.0381 17.7484 10.1631Z" fill="white"/>
	<path d="M17.112 11.4336C16.1258 11.3439 15.2085 10.8896 14.5395 10.1595C14.2225 9.81985 13.9508 9.4406 13.7312 9.03119C13.7204 9.01509 13.713 8.99696 13.7095 8.97792C13.7059 8.95887 13.7063 8.9393 13.7105 8.92039C13.7147 8.90149 13.7227 8.88363 13.7341 8.86792C13.7454 8.85221 13.7598 8.83897 13.7765 8.829C13.7931 8.81902 13.8115 8.81253 13.8307 8.80991C13.8499 8.80729 13.8695 8.80859 13.8881 8.81375C13.9068 8.8189 13.9242 8.8278 13.9394 8.83989C13.9545 8.85199 13.967 8.86703 13.9762 8.88411C14.2074 9.41098 14.531 9.89229 14.9316 10.3053C15.509 10.9185 16.2779 11.3165 17.112 11.4336Z" fill="white"/>
	<path d="M12.3331 9.52279C12.3508 9.51779 12.3694 9.51637 12.3876 9.5186C12.4059 9.52083 12.4235 9.52668 12.4395 9.53579C12.4555 9.5449 12.4695 9.55711 12.4807 9.57168C12.4919 9.58626 12.5001 9.60293 12.5048 9.62071C12.7625 10.3769 13.1897 11.0642 13.754 11.6298C14.568 12.453 15.6602 12.9423 16.8164 13.0019C15.5758 12.9998 14.3864 12.5065 13.5086 11.6298C12.9612 11.0887 12.5354 10.4372 12.2594 9.71863C12.2483 9.70155 12.2413 9.6821 12.2391 9.66184C12.2368 9.64158 12.2394 9.62108 12.2465 9.60199C12.2537 9.5829 12.2652 9.56575 12.2801 9.55192C12.2951 9.5381 12.3131 9.52798 12.3327 9.52239" fill="white"/>
	<path d="M17.3319 8.42156C17.5707 8.58226 17.8523 8.66761 18.1402 8.66655C18.3847 8.68533 18.6276 8.61312 18.8221 8.46378C19.0167 8.31445 19.1492 8.09851 19.1943 7.85742C19.163 8.14056 19.0283 8.40219 18.816 8.59212C18.6037 8.78204 18.3287 8.8869 18.0439 8.88656C17.7458 8.89717 17.4502 8.82951 17.1864 8.69033C17.1517 8.67284 17.1249 8.64293 17.1113 8.60656C17.0977 8.57018 17.0984 8.53002 17.1131 8.49409C17.1864 8.42075 17.2847 8.3732 17.3335 8.42075" fill="white"/>
</svg>
